<svg xmlns="http://www.w3.org/2000/svg" xmlns:xlink="http://www.w3.org/1999/xlink" version="1.1" x="0px" y="0px" viewBox="0 0 52 65" enable-background="new 0 0 52 52" xml:space="preserve"><g><g><path d="M41.0000153,50H10.99998l0.0453997-14.2969017l5.2193012-16.7020988h19.4706898l5.2646446,17.0004997V50z M12.99998,48    h26.0000381V36.153801l-4.7353477-15.1528015H17.7353802L12.99998,36.1543007V48z"/></g><g><rect x="18.9999809" y="23.0009995" width="14.0000401" height="2"/></g><g><rect x="18.9999809" y="44.0009995" width="2" height="2"/></g><g><rect x="22.9999809" y="44.0009995" width="2" height="2"/></g><g><rect x="26.9999809" y="44.0009995" width="2" height="2"/></g><g><rect x="30.9999809" y="44.0009995" width="2.0000401" height="2"/></g><g><rect x="17.9999809" y="27.0009995" width="16.0000401" height="2"/></g><g><rect x="15.99998" y="31" width="20.0000401" height="2"/></g><g><path d="M25.9999809,41.1400986c-2.4917011,0-4.5747013-1.7821999-5.0415001-4.1390991H11.99998v-2h10.8608999v1    c0,1.7308998,1.4081993,3.1390991,3.139101,3.1390991c1.730999,0,3.1391983-1.4081993,3.1391983-3.1390991v-1h10.8608398v2    h-8.95854C30.5746803,39.3578987,28.4916801,41.1400986,25.9999809,41.1400986z"/></g><g><path d="M44.0000191,29h-6.4887695v-2h6.4887695c2.2055626,0,4-1.7943993,4-4    c0-1.7935009-1.2197304-3.3740005-2.9658203-3.8437996L44.0127106,18.8813l0.3315506-1.0044003    C44.5463982,17.2646008,44.648941,16.6333008,44.648941,16c0-3.3086004-2.6914063-6-6-6    c-0.7744102,0-1.5346718,0.1493998-2.2597618,0.4438l-0.9545898,0.3881998l-0.3588905-0.9657993    C33.7700386,6.3573999,30.3832798,4,26.6484795,4c-4.6826,0-8.533699,3.5141001-8.9574986,8.1743002l-0.2422009,2.6605997    l-1.5644999-2.1660004C15.1181803,11.6084003,13.9384804,11,12.6484804,11c-2.2056007,0-4,1.7944002-4,4    c0,0.8584003,0.2837,1.6870003,0.8202991,2.3969994L10.6816797,19H7.99998c-2.2055001,0-4,1.7943993-4,4s1.7944999,4,4,4    h6.4912004v2H7.99998c-3.3085999,0-6-2.6914005-6-6c0-2.9776001,2.1802001-5.4556007,5.0279002-5.9214001    C6.77738,16.4165001,6.6484799,15.7163,6.6484799,15c0-3.3086004,2.6914001-6,6.0000005-6    c1.2226,0,2.4061995,0.3823004,3.3964987,1.0669003C17.3256798,5.355,21.5903797,2,26.6484795,2    c4.2412014,0,8.1147194,2.4857998,9.9228287,6.2754002C37.2485504,8.0923004,37.9438591,8,38.648941,8    c4.4111404,0,8,3.5888996,8,8c0,0.5244007-0.0522423,1.0473995-0.15625,1.5629997    c2.1059608,0.9624004,3.507328,3.076601,3.507328,5.4370003C50.0000191,26.3085995,47.308609,29,44.0000191,29z"/></g></g><text x="0" y="67" fill="#000000" font-size="5px" font-weight="bold" font-family="'Helvetica Neue', Helvetica, Arial-Unicode, Arial, Sans-serif">Created by DinosoftLab</text><text x="0" y="72" fill="#000000" font-size="5px" font-weight="bold" font-family="'Helvetica Neue', Helvetica, Arial-Unicode, Arial, Sans-serif">from the Noun Project</text></svg>